<?xml version="1.0" encoding="UTF-8" standalone="no"?>
<!-- Created with Inkscape (http://www.inkscape.org/) -->

<svg
   width="16"
   height="16"
   viewBox="0 0 4.2333333 4.2333335"
   version="1.1"
   id="svg5"
   inkscape:version="1.1.2 (0a00cf5, 2022-02-04)"
   sodipodi:docname="goduz_logo.svg"
   inkscape:export-filename="/home/andres/Programs/Goodoo/addons/goduz/assets/goduz_logo.png"
   inkscape:export-xdpi="96.000008"
   inkscape:export-ydpi="96.000008"
   xmlns:inkscape="http://www.inkscape.org/namespaces/inkscape"
   xmlns:sodipodi="http://sodipodi.sourceforge.net/DTD/sodipodi-0.dtd"
   xmlns="http://www.w3.org/2000/svg"
   xmlns:svg="http://www.w3.org/2000/svg">
  <sodipodi:namedview
     id="namedview7"
     pagecolor="#ffffff"
     bordercolor="#666666"
     borderopacity="1.0"
     inkscape:pageshadow="2"
     inkscape:pageopacity="0.0"
     inkscape:pagecheckerboard="0"
     inkscape:document-units="mm"
     showgrid="false"
     units="px"
     inkscape:snap-global="false"
     inkscape:zoom="10.482005"
     inkscape:cx="20.988351"
     inkscape:cy="5.914899"
     inkscape:window-width="1020"
     inkscape:window-height="720"
     inkscape:window-x="145"
     inkscape:window-y="21"
     inkscape:window-maximized="0"
     inkscape:current-layer="layer1" />
  <defs
     id="defs2" />
  <g
     inkscape:label="Layer 1"
     inkscape:groupmode="layer"
     id="layer1">
    <path
       id="path685"
       style="fill:#478cbf;fill-opacity:1;stroke:none;stroke-width:0.080079px;stroke-linecap:butt;stroke-linejoin:miter;stroke-opacity:1"
       d="M 6.2748258,0.61775638 5.8354121,0.84482188 5.940933,1.1601873 5.575316,1.4328795 5.3418714,1.2419287 4.983727,1.6306463 5.1881916,1.9068729 5.3931521,3.7638255 6.8464648,4.2586718 6.8524482,0.90263468 6.5088336,0.92476628 Z"
       sodipodi:nodetypes="cccccccccccc" />
    <path
       id="path24460"
       style="fill:#355570;fill-opacity:1;stroke:none;stroke-width:0.0812556px;stroke-linecap:butt;stroke-linejoin:miter;stroke-opacity:1"
       d="M 7.3918424,0.61775638 7.8442669,0.84482188 7.7356215,1.1601873 8.1120644,1.4328795 8.3524211,1.2419287 8.7211697,1.6306463 8.5106512,1.9068729 8.2996219,3.7638255 6.8435878,4.2645417 l 0.00528,-3.36103142 0.3020354,0.0212561 z"
       sodipodi:nodetypes="cccccccccccc" />
    <path
       id="path86"
       style="opacity:0.99;fill:#478cbf;stroke-width:4.414;stroke-miterlimit:4.2"
       d="M 8.1640625 0.2578125 A 7.8272066 7.8272066 0 0 0 7.3613281 0.28710938 A 7.8272066 7.8272066 0 0 0 0.22070312 8.5351562 A 7.8272066 7.8272066 0 0 0 8.2617188 15.908203 A 7.8272066 7.8272066 0 0 0 15.863281 8.0839844 L 15.810547 7.1855469 A 7.8272066 7.8272066 0 0 0 8.1640625 0.2578125 z M 8.109375 2.3808594 C 10.865585 2.3808594 12.618961 3.3707651 13.369141 5.3496094 L 11.101562 6.0117188 C 10.857061 5.4347805 10.475472 4.997729 9.953125 4.7011719 C 9.4307787 4.4046149 8.8150982 4.2578125 8.109375 4.2578125 C 6.9535447 4.2578125 6.0767051 4.5960055 5.4765625 5.2753906 C 4.8764199 5.9547759 4.5761719 6.9282052 4.5761719 8.1953125 C 4.5761719 9.4839874 4.8851398 10.481155 5.5019531 11.1875 C 6.1243233 11.888453 6.9966516 12.240234 8.1191406 12.240234 C 8.7581813 12.240234 9.3764199 12.150595 9.9765625 11.972656 C 10.576705 11.78933 11.041285 11.557724 11.369141 11.277344 L 11.369141 9.6992188 L 8.0703125 9.65625 L 8.0703125 7.8925781 L 13.619141 7.9375 L 13.619141 12.126953 C 12.99677 12.747027 12.185784 13.231556 11.185547 13.582031 C 10.190866 13.932509 9.1454858 14.107422 8.0507812 14.107422 C 6.1392158 14.107422 4.6706003 13.594782 3.6425781 12.570312 C 2.6145561 11.540451 2.0996094 10.082494 2.0996094 8.1953125 C 2.0996094 6.3189154 2.6168117 4.8822757 3.6503906 3.8847656 C 4.6839696 2.8818637 6.1700252 2.3808594 8.109375 2.3808594 z "
       transform="scale(0.26458333)" />
    <g
       aria-label="G"
       transform="matrix(0.51531838,0,0,0.34294605,-1.6149642,-1.6615938)"
       id="text28509"
       style="font-weight:bold;font-size:12.7792px;line-height:1.25;font-family:Hack;-inkscape-font-specification:'Hack Bold';letter-spacing:0px;word-spacing:0px;fill:#ffffff;stroke-width:0.31948">
      <g
         aria-label="G"
         transform="scale(0.82816655,1.2074866)"
         id="text47010"
         style="font-size:10.5833px;font-family:'Liberation Sans';-inkscape-font-specification:'Liberation Sans Bold';stroke-width:0.0845291" />
      <g
         transform="scale(0.82816655,1.2074866)"
         id="text50298"
         style="font-weight:normal;font-size:10.5833px;font-family:sans-serif;fill:#000000;stroke-width:0.0845291" />
    </g>
  </g>
</svg>
